<?xml version="1.0" encoding="UTF-8"?>
<svg id="Capa_2" data-name="Capa 2" xmlns="http://www.w3.org/2000/svg" viewBox="0 0 39.99 32">
  <defs>
    <style>
      .cls-1 {
        fill: #203f26;
        stroke-width: 0px;
      }
    </style>
  </defs>
  <g id="Capa_1-2" data-name="Capa 1">
    <g>
      <path class="cls-1" d="m39.97,19.18c-.15-1.74-1.64-3.06-3.39-3.06h-1.35c.34-3.17-.11-5.61-.2-6.07-1.45,0-5.45.22-9.38,3.21-4.41,3.36-5.86,8.02-6.25,9.46-.21.39-.15.76,0,.84.12.07.31-.02.47-.17.38-.62,1.07-1.57,2.19-2.36,1.6-1.13,3.17-1.32,3.91-1.35.1.49.7,3.67-1.25,6.58-1.79,2.68-5.71,3.23-7.04,3.35-1.33-.12-5.24-.67-7.04-3.35-1.95-2.91-1.35-6.09-1.25-6.58.74.03,2.31.22,3.91,1.35,1.12.8,1.81,1.75,2.19,2.36.16.15.35.24.47.17.15-.09.21-.45,0-.84-.39-1.43-1.84-6.1-6.25-9.46-3.93-2.99-7.93-3.2-9.38-3.21-.18.9-1.69,9.2,3.75,15.87,4.22,5.17,11.17,5.93,13.33,6.06,0,0,0,.02,0,.02.07,0,.16,0,.27,0,.11,0,.21,0,.27,0,0,0,0-.02,0-.02,2.16-.12,9.11-.88,13.33-6.06.76-.93,1.38-1.9,1.9-2.87h3.4c1.78,0,3.29-1.37,3.4-3.14,0-.02,0-.03,0-.05.01-.24,0-.46-.01-.68Zm-2.33.53c-.06.89-.81,1.57-1.7,1.57h-1.96c.46-1.18.78-2.35.99-3.46h.96c.88,0,1.62.66,1.7,1.53,0,.11.01.22,0,.34,0,0,0,.02,0,.03Z"/>
      <path class="cls-1" d="m23.24,7.89c-.41-1.81-1.24-2.25-1.69-4.12-.37-1.54-.19-2.9,0-3.77-.79,1.03-1.33,2-1.69,2.74-.26.54-.69,1.46-1.01,2.74-.07.29-.17.67-.22,1.08-.03.23-.11.9.01,1.64.03.16.06.3.1.42-.15.06-.31.12-.48.16-.23.06-.46.1-.67.12-.11-.22-.23-.47-.37-.84,0,0-.32-.88-.45-1.86-.25-1.86,1.05-3.68,1.69-4.46-.55.18-3.51,1.18-4.72,4.12-.83,2.01-.45,3.96-.34,4.46.41,1.81,1.24,2.25,1.69,4.12.37,1.54.19,2.9,0,3.77.79-1.03,1.33-2,1.69-2.74.26-.54.69-1.46,1.01-2.74.07-.29.17-.67.22-1.08.03-.2.09-.75.02-1.37.2-.03.41-.07.62-.12.25-.06.47-.13.68-.21.03.07.05.13.08.21,0,0,.32.88.45,1.86.25,1.86-1.05,3.68-1.69,4.46.55-.18,3.51-1.18,4.72-4.12.83-2.01.45-3.96.34-4.46Z"/>
    </g>
  </g>
</svg>