<?xml version="1.0" encoding="UTF-8"?>
<svg id="Capa_2" data-name="Capa 2" xmlns="http://www.w3.org/2000/svg" viewBox="0 0 509.67 27.25">
  <defs>
    <style>
      .cls-1 {
        fill: #f1dab1;
      }
    </style>
  </defs>
  <g id="Capa_2-2" data-name="Capa 2">
    <path class="cls-1" d="m504.19,27.25c-6.37-2.58-10.92-5.55-13.91-7.8-4.7-3.53-5.95-5.58-11.1-8.62-4.25-2.51-7.48-4.42-11.94-4.41-4.14,0-8.27,1.5-11.95,4.47-3.31,2.67-6.15,5.76-9.38,8.51-10.01,8.53-24.46,8.71-34.72.38-3.42-2.78-6.37-6-9.75-8.83-7.09-5.94-16.69-6.01-23.9-.19-2.41,1.95-4.5,4.2-6.7,6.34-12.19,11.84-28.48,11.81-40.71-.07-2.32-2.25-4.53-4.62-7.12-6.61-7.05-5.43-16.21-5.3-23.09.32-3.29,2.69-6.16,5.76-9.41,8.48-10.75,9.03-25.24,8.93-35.84-.23-2.71-2.34-5.16-4.91-7.86-7.26-8.15-7.07-18.1-7.03-26.21.1-2.56,2.25-4.81,4.78-7.39,7.02-10.91,9.43-25.71,9.41-36.67-.04-2.83-2.45-5.28-5.23-8.15-7.64-7.45-6.28-17.13-6.27-24.66,0-2.51,2.09-4.71,4.44-7.08,6.65-11.41,10.65-26.82,10.83-38.49.41-2.42-2.16-4.56-4.57-7.05-6.67-8.13-6.86-17.84-6.8-25.83.13-2.71,2.35-5.13,4.94-7.84,7.28-10.57,9.14-25.05,9.26-35.85.28-2.51-2.09-4.82-4.36-7.12-6.62-1.66-1.63-3.47-2.97-5.47-3.99-3.5-1.79-6.56-.28-7.96-2.32-.5-.73-.67-1.65-.83-2.57C.01,2.68-.24,1.27.49.62c.4-.35.94-.33,1.2-.33,6.14-.07,11.55,2.05,15.91,5.83,3.08,2.66,5.81,5.62,8.9,8.27,8.03,6.89,17.85,6.82,25.82-.13,3.19-2.78,6.06-5.85,9.36-8.52,9.24-7.46,23.31-7.59,32.74-.27,3.49,2.71,6.5,5.88,9.81,8.77,7.97,6.97,17.74,7.03,25.78.11,2.59-2.23,4.82-4.77,7.37-7.03,11.23-9.92,26.92-9.71,37.86.48,2.49,2.32,4.75,4.84,7.38,7.03,7.57,6.29,17.2,6.23,24.66-.1,3.48-2.95,6.57-6.27,10.18-9.1,9.75-7.65,24.09-7.36,33.52.56,2.5,2.1,4.83,4.35,7.13,6.61,9.06,8.87,19.87,8.93,29.12.12,2.11-2.01,4.1-4.11,6.32-6.03,10.39-8.95,24.8-9.18,35.52-.49,3.3,2.67,6.1,5.8,9.35,8.53,7.31,6.12,16.89,6.1,24.25-.03,2.63-2.19,4.94-4.67,7.44-6.98,11.26-10.41,26.68-10.57,38.18-.38,2.07,1.83,3.92,3.84,5.92,5.74,8.66,8.21,19.37,8.26,28.04.14,2.36-2.22,4.65-4.5,7.12-6.63,10.41-8.96,24.83-9.08,35.45-.27,3.38,2.81,3.86,3.72,7.58,6.83,3.75,3.13,9.26,6.79,17.26,9.48-1.54,1.24-3.08,2.48-5.48,4.4Z"/>
  </g>
</svg>